<svg width="360" height="399" viewBox="0 0 360 399" fill="none" xmlns="http://www.w3.org/2000/svg">
<path d="M116.704 1.41501C122.665 0.314511 127.792 0.68926 133.612 0.45051C140.952 0.14951 147.64 0.152011 154.972 0.150011L215.356 0.158263L305.474 0.150263L333.264 0.139761C337.139 0.131011 341.001 0.0900131 344.876 0.00101315C345.674 -0.0172369 346.771 0.205761 346.901 1.10251C340.256 9.16176 334.274 18.361 328.054 26.7535C322.511 34.2298 316.851 42.1838 311.286 49.584C308.614 53.1348 299.954 66.0598 297.426 68.431L207.194 68.422L162.096 68.4243C154.063 68.421 145.968 68.3398 137.963 68.503C129.643 68.6728 121.686 72.9593 116.194 79.0438C113.941 81.54 110.794 86.2393 108.658 89.1825L93.6079 110.05L81.6262 126.476C77.3122 132.406 72.8014 136.809 73.7667 144.635C74.9597 154.305 84.7297 160.638 91.7139 166.56L116.306 187.187L161.175 224.949C175.415 236.575 189.506 248.383 203.444 260.369C206.516 263.024 209.806 265.502 212.896 268.229L212.839 268.604C211.276 269.454 205.971 268.869 203.921 268.792C200.146 268.664 196.366 268.614 192.586 268.642L147.177 268.644C139.352 268.649 130.956 268.942 123.208 268.314C112.902 267.482 104.242 259.114 96.7169 252.852C88.9201 246.322 81.1738 239.731 73.4787 233.082L54.2357 216.722C48.7317 212.104 41.8034 206.387 36.5414 201.452C29.8832 195.124 23.5748 188.439 17.6444 181.425C10.1992 172.714 2.96093 163.726 0.827926 152.068C-1.75057 137.975 1.79667 126.375 10.0342 114.9C16.0767 106.484 22.1537 97.8578 28.2634 89.3793L53.5972 53.8108L67.5974 34.2933C71.0407 29.4793 76.3064 21.288 80.6589 17.7698C91.7682 8.78951 102.928 4.03751 116.704 1.41501Z" fill="url(#paint0_linear_13898_125)"/>
<path d="M198.954 2.51034C199.569 2.37784 200.632 2.29833 201.234 2.54183L201.024 2.81009C200.162 2.90109 199.599 2.92634 198.954 2.51034Z" fill="#00B2FF"/>
<path d="M242.777 328.724C249.179 323.942 251.792 319.652 256.429 313.217L269.217 295.379L279.432 281.304C285.792 272.464 290.759 266.067 283.032 255.304C280.502 251.777 276.697 249.009 273.419 246.182L259.249 234.092C236.199 214.307 212.937 194.769 189.469 175.483C177.691 165.847 165.993 156.112 154.378 146.28C152.177 144.413 145.288 139.55 144.257 137.364C145.413 136.522 161.651 136.884 164.388 136.891L197.459 136.915L219.444 136.906C241.899 136.906 243.599 137.173 260.897 151.638L275.984 164.114L301.902 185.652C326.297 205.637 364.254 234.942 358.407 270.882C357.325 277.315 355.042 283.486 351.677 289.074C348.932 293.689 343.304 300.829 339.879 305.434L323.582 327.669L297.909 362.577C295.407 365.982 289.087 375.749 286.114 377.967L285.397 377.574C284.354 378.049 283.132 378.057 282.419 378.524C282.227 377.832 283.077 377.982 283.117 376.324C282.307 374.944 281.069 374.494 280.042 373.352C272.207 364.629 263.949 356.437 256.339 347.487C254.092 344.842 249.752 341.417 246.959 339.434C244.509 337.692 241.999 336.634 241.217 333.242C240.889 331.809 242.212 330.107 242.777 328.724Z" fill="url(#paint1_linear_13898_125)"/>
<path d="M242.776 328.724C242.211 330.107 240.889 331.809 241.216 333.242C241.999 336.634 244.509 337.692 246.959 339.434C249.751 341.417 254.091 344.842 256.339 347.487C263.949 356.437 272.206 364.629 280.041 373.352C281.069 374.494 282.711 374.259 283.521 375.639C283.481 377.297 285.921 377.274 286.114 377.967C286.826 377.499 284.354 378.049 285.396 377.574L286.114 377.967C281.311 383.074 274.391 389.147 267.746 391.544C264.454 393.922 250.131 397.287 245.984 397.559C238.811 398.029 230.519 397.937 223.256 397.937H187.091L76.8795 398.017C57.9175 398.099 37.463 397.654 18.6655 398.287C21.9158 392.532 30.0878 381.784 34.3965 375.949C36.9143 371.804 42.529 364.537 45.5973 360.252C51.7323 351.687 58.1578 342.347 64.484 333.972C68.7973 333.547 78.1473 333.819 82.8108 333.819L119.413 333.809L166.31 333.804C173.383 333.802 183.641 333.464 190.386 333.879C199.026 333.429 208.429 333.999 217.141 333.837C227.999 333.632 233.259 334.647 242.776 328.724Z" fill="url(#paint2_linear_13898_125)"/>
<path d="M34.3965 375.949C34.585 378.387 21.031 394.449 21.3668 396.997C24.3815 397.497 36.8533 397.417 40.3505 397.437C52.8645 397.509 65.4978 397.749 78.0025 397.712C77.533 397.882 77.3703 397.917 76.8795 398.017C57.9175 398.099 37.463 397.654 18.6655 398.287C21.9158 392.532 30.0878 381.784 34.3965 375.949Z" fill="#7F30F1"/>
<defs>
<linearGradient id="paint0_linear_13898_125" x1="77.9084" y1="242.599" x2="226.724" y2="6.62826" gradientUnits="userSpaceOnUse">
<stop stop-color="#4257FF"/>
<stop offset="1" stop-color="#00C0FF"/>
</linearGradient>
<linearGradient id="paint1_linear_13898_125" x1="184.484" y1="293.882" x2="288.229" y2="173.834" gradientUnits="userSpaceOnUse">
<stop stop-color="#425CFF"/>
<stop offset="1" stop-color="#00A8FF"/>
</linearGradient>
<linearGradient id="paint2_linear_13898_125" x1="83.6548" y1="453.829" x2="201.744" y2="323.932" gradientUnits="userSpaceOnUse">
<stop stop-color="#830FEF"/>
<stop offset="1" stop-color="#425CFF"/>
</linearGradient>
</defs>
</svg>
